#!OML:ASF H:\Male1\Project 1\Capture day 1\Session 1\Male1.ASF
:FULLY-SPECIFIED
:DEGREES
876
root 5.25955 14.627 3.39793 181.624 5.01132 -176.658
lowerback 25.7006 -0.713207 0.0433243
upperback 12.4259 2.19526 -0.944686
thorax -0.448734 2.40681 -1.60567
lowerneck 0.0349803 8.83771 12.2397
upperneck -16.2946 11.3858 -18.4158
head -2.88565 6.52245 -7.90056
rclavicle -3.18055e-015 -1.98785e-015
rhumerus 4.39971 0.33671 -54.6276
rradius 126.672
rwrist -15.2775
rhand -35.3299 -4.9016
rfingers 7.12502
rthumb -8.46314 -34.712
lclavicle -3.18055e-015 -1.98785e-015
lhumerus -4.69704 11.1508 43.9251
lradius 118.977
lwrist -12.8799
lhand -36.1594 16.9927
lfingers 7.12502
lthumb -9.26363 46.7692
rfemur -22.7607 -0.391968 6.68571
rtibia 39.2742
rfoot -12.7027 -21.4898
rtoes -31.0748
lfemur -21.2267 -16.7469 1.42052
ltibia 36.4182
lfoot -18.023 10.3366
ltoes -33.2802
877
root 5.00806 14.6288 3.41094 181.956 5.31385 -176.492
lowerback 25.9766 -0.54521 -0.17123
upperback 12.3978 2.36913 -0.939126
thorax -0.609132 2.4831 -1.53481
lowerneck -0.197036 8.76202 12.4511
upperneck -16.4522 11.2864 -18.4086
head -2.89666 6.47027 -7.93305
rclavicle -2.18663e-014 1.19271e-014
rhumerus 3.96568 0.194833 -54.1012
rradius 126.634
rwrist -15.1457
rhand -35.5467 -4.70362
rfingers 7.12502
rthumb -8.6724 -34.5055
lclavicle -2.18663e-014 1.19271e-014
lhumerus -4.81897 11.5569 43.8729
lradius 119.235
lwrist -12.7491
lhand -36.2361 17.2876
lfingers 7.12502
lthumb -9.33766 47.0608
rfemur -23.2684 0.346118 5.97912
rtibia 38.9348
rfoot -11.6516 -22.4311
rtoes -28.8689
lfemur -22.5055 -15.8691 0.717376
ltibia 38.0248
lfoot -18.4319 10.1185
ltoes -34.2757
878
root 4.75649 14.6278 3.42543 182.288 5.74457 -176.303
lowerback 26.2618 -0.374949 -0.315568
upperback 12.3785 2.56117 -0.968434
thorax -0.760613 2.57361 -1.54763
lowerneck -0.399588 8.69173 12.6341
upperneck -16.6586 11.1904 -18.4598
head -2.92355 6.42858 -7.98422
rclavicle -1.07344e-014 -3.57812e-015
rhumerus 3.61237 0.140668 -53.4481
rradius 126.608
rwrist -15.0559
rhand -35.7565 -4.65806
rfingers 7.12502
rthumb -8.8748 -34.4514
lclavicle -1.07344e-014 -3.57812e-015
lhumerus -4.98823 12.0659 43.6594
lradius 119.478
lwrist -12.58
lhand -36.2973 17.681
lfingers 7.12502
lthumb -9.39671 47.4515
rfemur -24.0332 0.873001 5.43275
rtibia 38.9234
rfoot -10.6877 -23.3352
rtoes -26.4596
lfemur -23.773 -15.1285 -0.00836333
ltibia 39.7296
lfoot -18.8612 10.1582
ltoes -34.7482
879
root 4.5072 14.6219 3.44095 182.605 6.28722 -176.061
lowerback 26.567 -0.20639 -0.363672
upperback 12.363 2.7726 -1.02703
thorax -0.912479 2.67947 -1.65439
lowerneck -0.553933 8.62801 12.7921
upperneck -16.9136 11.101 -18.5593
head -2.96948 6.39818 -8.05246
rclavicle -9.93923e-015 -4.37326e-015
rhumerus 3.35093 0.130383 -52.7239
rradius 126.603
rwrist -15.042
rhand -35.9849 -4.85657
rfingers 7.12502
rthumb -9.09527 -34.6405
lclavicle -9.93923e-015 -4.37326e-015
lhumerus -5.17951 12.6335 43.2895
lradius 119.684
lwrist -12.3936
lhand -36.4004 18.1383
lfingers 7.12502
lthumb -9.49616 47.9043
rfemur -25.0552 1.10936 5.14513
rtibia 39.3359
rfoot -9.86939 -24.0343
rtoes -24.5278
lfemur -24.9966 -14.563 -0.682124
ltibia 41.5032
lfoot -19.4323 10.2567
ltoes -34.1593
880
root 4.26309 14.6096 3.45709 182.888 6.90363 -175.734
lowerback 26.9008 -0.0479217 -0.299151
upperback 12.3549 3.00051 -1.1015
thorax -1.06358 2.8003 -1.84991
lowerneck -0.658055 8.57363 12.9373
upperneck -17.1995 11.0232 -18.6901
head -3.02941 6.37861 -8.13326
rclavicle -6.75868e-015 1.94809e-014
rhumerus 3.18151 0.113603 -51.9974
rradius 126.623
rwrist -15.106
rhand -36.2501 -5.31033
rfingers 7.12502
rthumb -9.35116 -35.0829
lclavicle -6.75868e-015 1.94809e-014
lhumerus -5.36616 13.2088 42.7886
lradius 119.841
lwrist -12.223
lhand -36.5651 18.637
lfingers 7.12502
lthumb -9.65502 48.3958
rfemur -26.2956 1.03065 5.21722
rtibia 40.2514
rfoot -9.54559 -24.3219
rtoes -22.8693
lfemur -26.1736 -14.1395 -1.25394
ltibia 43.3178
lfoot -20.0331 10.4524
ltoes -33.1356
